<svg width="22" height="19" viewBox="0 0 22 19" fill="none" xmlns="http://www.w3.org/2000/svg">
<path d="M0 18.6505H1.4546C4.22297 18.3726 2.74758 18.3851 5.68888 16.9728C7.03659 16.326 8.00355 14.241 10.0098 13.4145C14.9983 11.3594 14.3565 12.5025 16.6527 12.5025C13.5733 10.0421 12.6121 11.0112 10.3134 11.2502C8.84515 11.4022 7.60204 10.2285 7.65814 8.96902C7.7124 7.76486 9.20349 6.6994 10.4041 6.45977L7.06637 6.42682L0 18.6505Z" fill="url(#paint0_linear_143_2241)"/>
<path d="M5.02295 9.96119C7.34131 7.24664 9.97784 6.33925 11.4274 6.33925C13.1526 6.33925 14.6206 7.36645 15.6586 8.43606L10.7813 -1.52588e-05L5.02295 9.96119Z" fill="url(#paint1_linear_143_2241)"/>
<path d="M1.06836 18.6507C7.34163 18.6507 7.37349 13.9115 10.7816 13.9115C14.1898 13.9115 14.2219 18.6507 20.4949 18.6507H21.564C21.564 18.6507 18.256 12.0435 13.8968 10.9778C13.6102 10.9068 13.3161 10.8705 13.0208 10.8697C8.91537 10.8697 6.50488 18.1035 1.06859 18.6496" fill="url(#paint2_linear_143_2241)"/>
<defs>
<linearGradient id="paint0_linear_143_2241" x1="10.4579" y1="17.9782" x2="6.40162" y2="9.49091" gradientUnits="userSpaceOnUse">
<stop offset="0.263" stop-color="#0093D5"/>
<stop offset="0.401" stop-color="#008ED0"/>
<stop offset="0.549" stop-color="#0082C3"/>
<stop offset="0.701" stop-color="#006DAE"/>
<stop offset="0.856" stop-color="#005090"/>
<stop offset="1" stop-color="#002E6E"/>
</linearGradient>
<linearGradient id="paint1_linear_143_2241" x1="5.02295" y1="4.98059" x2="15.6586" y2="4.98059" gradientUnits="userSpaceOnUse">
<stop stop-color="#0093D5"/>
<stop offset="0.188" stop-color="#008ED0"/>
<stop offset="0.388" stop-color="#0082C3"/>
<stop offset="0.595" stop-color="#006DAE"/>
<stop offset="0.804" stop-color="#005090"/>
<stop offset="1" stop-color="#002E6E"/>
</linearGradient>
<linearGradient id="paint2_linear_143_2241" x1="6.9096" y1="13.6553" x2="8.60753" y2="24.748" gradientUnits="userSpaceOnUse">
<stop stop-color="#002E6E"/>
<stop offset="0.196" stop-color="#005090"/>
<stop offset="0.405" stop-color="#006DAE"/>
<stop offset="0.612" stop-color="#0082C3"/>
<stop offset="0.812" stop-color="#008ED0"/>
<stop offset="1" stop-color="#0093D5"/>
</linearGradient>
</defs>
</svg>
