<svg width="24" height="19" viewBox="0 0 24 19" fill="none" xmlns="http://www.w3.org/2000/svg">
<path d="M0 18.8441H1.61893C4.70003 18.5633 3.05797 18.5759 6.33155 17.149C7.8315 16.4955 8.9077 14.3889 11.1405 13.5538C16.6927 11.4774 15.9783 12.6323 18.5339 12.6323C15.1067 10.1464 14.0369 11.1256 11.4785 11.367C9.84437 11.5207 8.46083 10.3348 8.52327 9.06222C8.58366 7.84557 10.2432 6.76907 11.5795 6.52695L7.86465 6.49365L0 18.8441Z" fill="#E2E2E2"/>
<path d="M5.5907 10.0645C8.17096 7.32181 11.1053 6.40501 12.7186 6.40501C14.6387 6.40501 16.2725 7.44287 17.4279 8.52357L11.9996 0L5.5907 10.0645Z" fill="white"/>
<path d="M1.18909 18.8442C8.17104 18.8442 8.2065 14.0558 11.9997 14.0558C15.7928 14.0558 15.8286 18.8442 22.8103 18.8442H24C24 18.8442 20.3184 12.1685 15.4668 11.0917C15.1478 11.02 14.8204 10.9833 14.4918 10.9825C9.92256 10.9825 7.23977 18.2913 1.18934 18.8431" fill="white"/>
</svg>
