<svg width="248" height="66" viewBox="0 0 248 66" fill="none" xmlns="http://www.w3.org/2000/svg">
<path d="M24.2181 42.6841V33.0386H28.0667C28.5589 33.0386 28.9941 33.1252 29.3724 33.2983C29.7507 33.467 30.0492 33.6971 30.2679 33.9888C30.4912 34.2759 30.6576 34.5949 30.7669 34.9458C30.8809 35.2967 30.9378 35.6681 30.9378 36.0601C30.9378 36.4565 30.8809 36.8302 30.7669 37.1812C30.6576 37.5275 30.4912 37.8465 30.2679 38.1382C30.0492 38.4253 29.7507 38.6532 29.3724 38.8218C28.9941 38.9904 28.5589 39.0747 28.0667 39.0747H25.5306V42.6841H24.2181ZM25.5306 37.8511H27.9779C28.3516 37.8511 28.666 37.7622 28.9212 37.5845C29.181 37.4067 29.3633 37.188 29.4681 36.9282C29.5775 36.6639 29.6322 36.3745 29.6322 36.0601C29.6322 35.7502 29.5798 35.4631 29.4749 35.1987C29.3747 34.9344 29.2015 34.7111 28.9554 34.5288C28.7093 34.3465 28.4085 34.2554 28.0531 34.2554H25.5306V37.8511ZM32.723 41.1938C32.4131 40.6652 32.2581 40.0659 32.2581 39.396C32.2581 38.7261 32.4131 38.1313 32.723 37.6118C33.0374 37.0877 33.4522 36.689 33.9671 36.4155C34.4821 36.1421 35.0518 36.0054 35.6761 36.0054C36.3005 36.0054 36.8701 36.1421 37.3851 36.4155C37.9046 36.689 38.3216 37.0877 38.6361 37.6118C38.9505 38.1313 39.1077 38.7261 39.1077 39.396C39.1077 40.0659 38.9505 40.6652 38.6361 41.1938C38.3216 41.7225 37.9046 42.1258 37.3851 42.4038C36.8656 42.6818 36.2959 42.8208 35.6761 42.8208C35.0563 42.8208 34.4867 42.6818 33.9671 42.4038C33.4522 42.1258 33.0374 41.7225 32.723 41.1938ZM33.516 39.396C33.516 40.0477 33.7233 40.5763 34.138 40.9819C34.5573 41.3875 35.07 41.5903 35.6761 41.5903C36.2777 41.5903 36.7858 41.3875 37.2005 40.9819C37.6198 40.5763 37.8294 40.0477 37.8294 39.396C37.8294 38.7534 37.6221 38.2362 37.2074 37.8442C36.7926 37.4478 36.2822 37.2495 35.6761 37.2495C35.07 37.2495 34.5573 37.4478 34.138 37.8442C33.7233 38.2362 33.516 38.7534 33.516 39.396ZM40.3802 36.1489H41.7406L43.3744 40.7222L45.015 36.1489H46.2454L47.8861 40.7222L49.5199 36.1489H50.8802L48.4603 42.6841H47.4076L45.6302 37.8853L43.9076 42.6841H42.8685L40.3802 36.1489ZM52.1663 39.396C52.1663 38.3843 52.4854 37.5662 53.1234 36.9419C53.766 36.3175 54.5635 36.0054 55.516 36.0054C56.4593 36.0054 57.2363 36.3153 57.847 36.9351C58.4577 37.5549 58.763 38.3752 58.763 39.396C58.763 39.6375 58.7585 39.8039 58.7494 39.895H53.4447C53.5221 40.4373 53.7546 40.8703 54.1419 41.1938C54.5293 41.5174 55.001 41.6792 55.557 41.6792C55.9535 41.6792 56.3203 41.5903 56.6576 41.4126C56.9948 41.2349 57.2523 40.9865 57.43 40.6675C57.5576 40.7176 57.7536 40.7951 58.0179 40.8999C58.2822 41.0002 58.4508 41.064 58.5238 41.0913C58.2503 41.6473 57.8425 42.0757 57.3001 42.3765C56.7624 42.6727 56.1676 42.8208 55.516 42.8208C54.568 42.8208 53.7728 42.5041 53.1302 41.8706C52.4876 41.2371 52.1663 40.4123 52.1663 39.396ZM53.4447 38.9038H57.4984C57.4209 38.3615 57.2022 37.9354 56.8421 37.6255C56.4867 37.311 56.0446 37.1538 55.516 37.1538C54.9691 37.1538 54.5065 37.311 54.1283 37.6255C53.75 37.9354 53.5221 38.3615 53.4447 38.9038ZM60.8831 42.6841V36.1489H62.1546V37.6187C62.4691 36.5431 63.0752 36.0054 63.973 36.0054C64.1963 36.0054 64.415 36.0327 64.6292 36.0874C64.848 36.1375 65.0075 36.1945 65.1077 36.2583L64.9095 37.4478C64.6042 37.2974 64.2829 37.2222 63.9456 37.2222C63.54 37.2222 63.2005 37.3612 62.9271 37.6392C62.6536 37.9172 62.4554 38.2817 62.3324 38.7329C62.2139 39.1841 62.1546 39.7082 62.1546 40.3052V42.6841H60.8831ZM66.2913 39.396C66.2913 38.3843 66.6104 37.5662 67.2484 36.9419C67.891 36.3175 68.6885 36.0054 69.641 36.0054C70.5843 36.0054 71.3613 36.3153 71.972 36.9351C72.5827 37.5549 72.888 38.3752 72.888 39.396C72.888 39.6375 72.8835 39.8039 72.8744 39.895H67.5697C67.6471 40.4373 67.8796 40.8703 68.2669 41.1938C68.6543 41.5174 69.126 41.6792 69.682 41.6792C70.0785 41.6792 70.4453 41.5903 70.7826 41.4126C71.1198 41.2349 71.3773 40.9865 71.555 40.6675C71.6826 40.7176 71.8786 40.7951 72.1429 40.8999C72.4072 41.0002 72.5758 41.064 72.6488 41.0913C72.3753 41.6473 71.9675 42.0757 71.4251 42.3765C70.8874 42.6727 70.2926 42.8208 69.641 42.8208C68.693 42.8208 67.8978 42.5041 67.2552 41.8706C66.6126 41.2371 66.2913 40.4123 66.2913 39.396ZM67.5697 38.9038H71.6234C71.5459 38.3615 71.3272 37.9354 70.9671 37.6255C70.6117 37.311 70.1696 37.1538 69.641 37.1538C69.0941 37.1538 68.6315 37.311 68.2533 37.6255C67.875 37.9354 67.6471 38.3615 67.5697 38.9038ZM74.5706 39.4097C74.5706 38.7352 74.721 38.1359 75.0218 37.6118C75.3226 37.0877 75.7191 36.689 76.2113 36.4155C76.708 36.1421 77.2572 36.0054 77.8587 36.0054C78.36 36.0054 78.818 36.1034 79.2327 36.2993C79.6475 36.4907 79.9596 36.7664 80.1693 37.1265V32.5874H81.4476V42.6841H80.1693V41.6792C79.9596 42.0392 79.6429 42.3195 79.2191 42.52C78.7952 42.7205 78.3464 42.8208 77.8724 42.8208C77.2754 42.8208 76.7262 42.6841 76.2249 42.4106C75.7282 42.1326 75.3272 41.7316 75.0218 41.2075C74.721 40.6789 74.5706 40.0796 74.5706 39.4097ZM75.8763 39.396C75.8763 40.0295 76.0791 40.5513 76.4847 40.9614C76.8903 41.3716 77.3916 41.5767 77.9886 41.5767C78.5902 41.5767 79.1006 41.3807 79.5199 40.9888C79.9437 40.5923 80.1556 40.0614 80.1556 39.396C80.1556 38.9494 80.0462 38.5597 79.8275 38.2271C79.6087 37.8898 79.3376 37.6437 79.014 37.4888C78.695 37.3293 78.3532 37.2495 77.9886 37.2495C77.387 37.2495 76.8835 37.4478 76.4779 37.8442C76.0768 38.2407 75.8763 38.758 75.8763 39.396ZM88.2171 42.6841V32.5874H89.4886V37.1265C89.6982 36.7664 90.0104 36.4907 90.4251 36.2993C90.8398 36.1034 91.2933 36.0054 91.7855 36.0054C92.3916 36.0054 92.943 36.1421 93.4398 36.4155C93.9365 36.689 94.3353 37.0877 94.6361 37.6118C94.9369 38.1359 95.0872 38.7352 95.0872 39.4097C95.0872 40.0796 94.9346 40.6789 94.6292 41.2075C94.3239 41.7316 93.9206 42.1326 93.4193 42.4106C92.918 42.6841 92.3688 42.8208 91.7718 42.8208C91.2979 42.8208 90.8512 42.7205 90.432 42.52C90.0127 42.3195 89.6982 42.0392 89.4886 41.6792V42.6841H88.2171ZM89.5023 39.396C89.5023 40.0659 89.7119 40.5968 90.1312 40.9888C90.555 41.3807 91.07 41.5767 91.6761 41.5767C92.2731 41.5767 92.7744 41.3716 93.18 40.9614C93.5856 40.5513 93.7884 40.0295 93.7884 39.396C93.7884 38.758 93.5856 38.2407 93.18 37.8442C92.779 37.4478 92.2777 37.2495 91.6761 37.2495C91.4072 37.2495 91.1452 37.2974 90.89 37.3931C90.6348 37.4842 90.4023 37.6187 90.1927 37.7964C89.9876 37.9696 89.8213 38.1951 89.6937 38.4731C89.5661 38.7511 89.5023 39.0588 89.5023 39.396ZM96.3119 36.1489H97.6722L99.6273 40.8794L101.589 36.1489H102.95L98.889 45.8628H97.556L98.93 42.4858L96.3119 36.1489Z" fill="white"/>
<path d="M123.859 43.9998H125.56C128.797 43.675 127.072 43.6896 130.512 42.039C132.088 41.283 133.219 38.846 135.565 37.88C141.399 35.478 140.648 36.8141 143.333 36.8141C139.732 33.9384 138.608 35.0711 135.92 35.3504C134.203 35.5281 132.749 34.1562 132.815 32.6842C132.878 31.2768 134.622 30.0315 136.026 29.7514L132.123 29.7129L123.859 43.9998Z" fill="white"/>
<path d="M129.734 33.8437C132.445 30.671 135.528 29.6104 137.224 29.6104C139.241 29.6104 140.958 30.811 142.172 32.0612L136.468 22.2012L129.734 33.8437Z" fill="white"/>
<path d="M125.108 43.9999C132.444 43.9999 132.481 38.4607 136.467 38.4607C140.453 38.4607 140.49 43.9999 147.826 43.9999H149.076C149.076 43.9999 145.208 36.2774 140.11 35.0318C139.775 34.9488 139.431 34.9064 139.086 34.9055C134.285 34.9055 131.466 43.3602 125.108 43.9985" fill="white"/>
<path d="M151.478 37.9055C151.476 37.8695 151.481 37.8335 151.493 37.7995C151.505 37.7655 151.524 37.7344 151.549 37.7081C151.573 37.6818 151.603 37.6608 151.637 37.6464C151.67 37.6321 151.705 37.6247 151.742 37.6247C151.778 37.6247 151.813 37.6321 151.847 37.6464C151.88 37.6608 151.91 37.6818 151.934 37.7081C151.959 37.7344 151.978 37.7655 151.99 37.7995C152.002 37.8335 152.007 37.8695 152.005 37.9055V40.4323C152.005 40.4682 152.022 40.4903 152.059 40.4903H155.144C155.183 40.4903 155.21 40.4711 155.21 40.4323V37.9055C155.206 37.8687 155.209 37.8314 155.221 37.7961C155.232 37.7608 155.25 37.7282 155.275 37.7005C155.3 37.6728 155.33 37.6507 155.364 37.6355C155.398 37.6204 155.435 37.6125 155.472 37.6125C155.509 37.6125 155.546 37.6204 155.58 37.6355C155.613 37.6507 155.644 37.6728 155.669 37.7005C155.693 37.7282 155.712 37.7608 155.723 37.7961C155.734 37.8314 155.738 37.8687 155.734 37.9055V43.6557C155.738 43.6925 155.734 43.7298 155.723 43.7651C155.712 43.8004 155.693 43.833 155.669 43.8607C155.644 43.8883 155.613 43.9105 155.58 43.9256C155.546 43.9408 155.509 43.9486 155.472 43.9486C155.435 43.9486 155.398 43.9408 155.364 43.9256C155.33 43.9105 155.3 43.8883 155.275 43.8607C155.25 43.833 155.232 43.8004 155.221 43.7651C155.209 43.7298 155.206 43.6925 155.21 43.6557V41.0384C155.21 41.0019 155.184 40.9804 155.144 40.9804H152.059C152.022 40.9804 152.005 40.9996 152.005 41.0384V43.6557C152.007 43.6916 152.002 43.7277 151.99 43.7617C151.978 43.7956 151.959 43.8267 151.934 43.8531C151.91 43.8794 151.88 43.9004 151.847 43.9147C151.813 43.9291 151.778 43.9365 151.742 43.9365C151.705 43.9365 151.67 43.9291 151.637 43.9147C151.603 43.9004 151.573 43.8794 151.549 43.8531C151.524 43.8267 151.505 43.7956 151.493 43.7617C151.481 43.7277 151.476 43.6916 151.478 43.6557V37.9055Z" fill="white"/>
<path d="M159.805 41.3674C159.813 41.3686 159.821 41.3679 159.828 41.3653C159.836 41.3628 159.843 41.3585 159.848 41.3528C159.853 41.3471 159.857 41.3402 159.859 41.3326C159.862 41.3251 159.862 41.3171 159.86 41.3094C159.865 41.0983 159.837 40.8878 159.778 40.6852C159.704 40.4345 159.547 40.2162 159.333 40.066C159.118 39.9158 158.859 39.8427 158.598 39.8586C158.338 39.8426 158.08 39.9159 157.867 40.0662C157.654 40.2166 157.5 40.4351 157.429 40.6852C157.367 40.8874 157.339 41.0982 157.345 41.3094C157.344 41.3173 157.344 41.3255 157.347 41.3332C157.349 41.3409 157.353 41.3479 157.359 41.3536C157.365 41.3593 157.372 41.3635 157.379 41.3659C157.387 41.3683 157.395 41.3688 157.403 41.3674H159.805ZM156.977 42.8175C156.867 42.4486 156.819 42.0636 156.838 41.6789C156.821 41.294 156.868 40.909 156.977 40.5396C157.098 40.2059 157.319 39.9174 157.61 39.7135C157.901 39.5096 158.248 39.4001 158.604 39.4001C158.959 39.4001 159.306 39.5096 159.597 39.7135C159.888 39.9174 160.109 40.2059 160.23 40.5396C160.331 40.8791 160.378 41.2326 160.367 41.5867C160.37 41.6175 160.365 41.6485 160.354 41.6774C160.343 41.7063 160.326 41.7325 160.304 41.7542C160.282 41.7759 160.255 41.7927 160.226 41.8033C160.197 41.8139 160.166 41.8182 160.135 41.8158H157.401C157.394 41.8142 157.386 41.8145 157.378 41.8167C157.371 41.8188 157.364 41.8228 157.358 41.8282C157.352 41.8336 157.348 41.8403 157.345 41.8477C157.343 41.8552 157.342 41.8631 157.343 41.8709C157.329 42.1288 157.36 42.3872 157.436 42.6342C157.515 42.8965 157.681 43.1242 157.907 43.2796C158.133 43.435 158.405 43.509 158.679 43.4893C158.901 43.4974 159.123 43.4573 159.328 43.3715C159.533 43.2858 159.717 43.1565 159.867 42.9927C159.915 42.9393 159.981 42.9059 160.052 42.8993C160.081 42.8981 160.11 42.9028 160.136 42.913C160.163 42.9232 160.188 42.9387 160.208 42.9586C160.229 42.9785 160.245 43.0024 160.256 43.0288C160.267 43.0552 160.273 43.0836 160.273 43.1122C160.273 43.1722 160.253 43.2306 160.215 43.2769C160.024 43.5044 159.784 43.6849 159.513 43.8044C159.241 43.924 158.945 43.9793 158.649 43.9661C158.28 43.9959 157.912 43.898 157.607 43.6889C157.302 43.4799 157.078 43.1724 156.973 42.8181" fill="white"/>
<path d="M164.32 42.5239V41.8719C164.32 41.8342 164.302 41.8139 164.266 41.8139H163.215C162.34 41.8139 161.971 42.0819 161.971 42.6701C161.971 43.2107 162.35 43.4967 163.06 43.4967C163.816 43.4967 164.32 43.1295 164.32 42.5216L164.32 42.5239ZM165.105 43.6713C165.105 43.7043 165.099 43.737 165.086 43.7674C165.073 43.7978 165.053 43.8251 165.029 43.8476C165.005 43.8701 164.976 43.8872 164.945 43.898C164.914 43.9088 164.88 43.913 164.847 43.9103C164.796 43.9105 164.747 43.8958 164.704 43.8679C164.661 43.8401 164.628 43.8003 164.608 43.7536L164.394 43.4056H164.377C164.203 43.601 163.986 43.7534 163.743 43.8507C163.5 43.9479 163.237 43.9874 162.976 43.9659C162.791 43.9905 162.602 43.9754 162.422 43.9218C162.243 43.8683 162.077 43.7773 161.935 43.6551C161.793 43.5328 161.679 43.3819 161.6 43.2124C161.521 43.043 161.479 42.8587 161.477 42.6718C161.477 41.8064 162.083 41.3667 163.141 41.3667H164.268C164.304 41.3667 164.321 41.3481 164.321 41.3087V40.9972C164.321 40.2709 164.045 39.8666 163.18 39.8666C162.828 39.8721 162.483 39.9667 162.177 40.1416C162.126 40.1771 162.065 40.1972 162.003 40.1996C161.972 40.2018 161.941 40.1974 161.912 40.1868C161.884 40.1762 161.857 40.1596 161.835 40.1381C161.813 40.1166 161.796 40.0907 161.785 40.0621C161.774 40.0335 161.769 40.0029 161.77 39.9722C161.772 39.933 161.781 39.8946 161.799 39.8596C161.817 39.8246 161.842 39.7939 161.873 39.7698C162.268 39.5103 162.734 39.3815 163.207 39.4014C164.296 39.4014 164.802 39.8887 164.802 40.9624V42.7368C164.788 42.898 164.82 43.0598 164.893 43.2043L165.067 43.5355C165.089 43.5788 165.101 43.6259 165.104 43.6742" fill="white"/>
<path d="M167.123 43.9323C166.452 43.9323 166.212 43.6203 166.212 42.9039V37.8899C166.21 37.8558 166.214 37.8217 166.226 37.7895C166.237 37.7574 166.255 37.728 166.279 37.703C166.302 37.6781 166.33 37.6582 166.362 37.6446C166.393 37.631 166.427 37.624 166.461 37.624C166.495 37.624 166.529 37.631 166.56 37.6446C166.592 37.6582 166.62 37.6781 166.643 37.703C166.667 37.728 166.685 37.7574 166.696 37.7895C166.707 37.8217 166.712 37.8558 166.71 37.8899V42.8865C166.71 43.3163 166.829 43.4555 167.216 43.4555C167.249 43.4539 167.281 43.4589 167.312 43.4702C167.342 43.4815 167.37 43.4988 167.393 43.5211C167.417 43.5434 167.436 43.5703 167.448 43.6001C167.461 43.6298 167.468 43.6619 167.468 43.6942C167.468 43.7266 167.461 43.7587 167.448 43.7884C167.436 43.8182 167.417 43.845 167.393 43.8673C167.37 43.8896 167.342 43.907 167.312 43.9183C167.281 43.9295 167.249 43.9345 167.216 43.9329L167.123 43.9323Z" fill="white"/>
<path d="M170.357 43.9322C169.546 43.9322 169.231 43.6201 169.231 42.7553V39.9837C169.231 39.946 169.216 39.9257 169.178 39.9257H168.818C168.788 39.9285 168.757 39.9248 168.728 39.915C168.699 39.9051 168.672 39.8894 168.649 39.8687C168.626 39.848 168.608 39.8228 168.596 39.7947C168.584 39.7666 168.577 39.7363 168.577 39.7056C168.577 39.6749 168.584 39.6446 168.596 39.6165C168.608 39.5885 168.626 39.5633 168.649 39.5426C168.672 39.5218 168.699 39.5061 168.728 39.4963C168.757 39.4864 168.788 39.4828 168.818 39.4855H169.178C169.215 39.4855 169.231 39.4681 169.231 39.4275V37.8897C169.23 37.8559 169.235 37.8221 169.247 37.7904C169.259 37.7587 169.277 37.7297 169.3 37.7052C169.324 37.6807 169.352 37.6612 169.383 37.6479C169.414 37.6346 169.448 37.6277 169.482 37.6277C169.516 37.6277 169.549 37.6346 169.58 37.6479C169.612 37.6612 169.64 37.6807 169.663 37.7052C169.687 37.7297 169.705 37.7587 169.717 37.7904C169.728 37.8221 169.734 37.8559 169.732 37.8897V39.431C169.732 39.4687 169.749 39.4889 169.786 39.4889H170.483C170.514 39.4862 170.545 39.4899 170.574 39.4997C170.603 39.5096 170.63 39.5253 170.653 39.546C170.675 39.5667 170.693 39.5919 170.706 39.62C170.718 39.6481 170.725 39.6784 170.725 39.7091C170.725 39.7398 170.718 39.7701 170.706 39.7982C170.693 39.8262 170.675 39.8514 170.653 39.8721C170.63 39.8929 170.603 39.9086 170.574 39.9184C170.545 39.9283 170.514 39.9319 170.483 39.9292H169.786C169.749 39.9292 169.732 39.9484 169.732 39.9872V42.7414C169.732 43.3214 169.915 43.4583 170.476 43.4583C170.51 43.4555 170.543 43.4595 170.574 43.4703C170.606 43.481 170.635 43.4981 170.659 43.5205C170.684 43.543 170.703 43.5703 170.717 43.6006C170.73 43.631 170.737 43.6638 170.737 43.697C170.737 43.7302 170.73 43.763 170.717 43.7934C170.703 43.8238 170.684 43.851 170.659 43.8735C170.635 43.8959 170.606 43.913 170.574 43.9237C170.543 43.9344 170.51 43.9385 170.476 43.9357L170.357 43.9322Z" fill="white"/>
<path d="M174.687 43.6748V41.2212C174.687 40.3511 174.3 39.9079 173.535 39.9079C173.374 39.903 173.214 39.9315 173.065 39.9915C172.916 40.0515 172.781 40.1417 172.668 40.2565C172.556 40.3712 172.468 40.508 172.411 40.6582C172.355 40.8084 172.33 40.9687 172.338 41.129V43.6748C172.341 43.7089 172.336 43.743 172.324 43.7751C172.313 43.8073 172.295 43.8367 172.272 43.8617C172.248 43.8866 172.22 43.9065 172.189 43.9201C172.157 43.9336 172.124 43.9407 172.089 43.9407C172.055 43.9407 172.021 43.9336 171.99 43.9201C171.959 43.9065 171.93 43.8866 171.907 43.8617C171.884 43.8367 171.866 43.8073 171.854 43.7751C171.843 43.743 171.838 43.7089 171.84 43.6748V37.8881C171.838 37.8541 171.843 37.82 171.854 37.7878C171.866 37.7557 171.884 37.7262 171.907 37.7013C171.93 37.6764 171.959 37.6565 171.99 37.6429C172.021 37.6293 172.055 37.6223 172.089 37.6223C172.124 37.6223 172.157 37.6293 172.189 37.6429C172.22 37.6565 172.248 37.6764 172.272 37.7013C172.295 37.7262 172.313 37.7557 172.324 37.7878C172.336 37.82 172.341 37.8541 172.338 37.8881V40.0541H172.347C172.491 39.8465 172.686 39.6799 172.914 39.5707C173.142 39.4614 173.394 39.4133 173.646 39.4311C174.613 39.4311 175.184 40.0373 175.184 41.1034V43.6754C175.187 43.7094 175.182 43.7436 175.171 43.7757C175.159 43.8079 175.141 43.8373 175.118 43.8622C175.095 43.8872 175.066 43.907 175.035 43.9206C175.004 43.9342 174.97 43.9412 174.936 43.9412C174.901 43.9412 174.868 43.9342 174.836 43.9206C174.805 43.907 174.777 43.8872 174.753 43.8622C174.73 43.8373 174.712 43.8079 174.7 43.7757C174.689 43.7436 174.684 43.7094 174.687 43.6754" fill="white"/>
<path d="M176.431 40.5396C176.537 40.1939 176.756 39.8937 177.053 39.6872C177.35 39.4806 177.708 39.3798 178.07 39.4009C178.351 39.3857 178.63 39.4458 178.88 39.5751C179.129 39.7043 179.339 39.898 179.488 40.1359C179.515 40.1798 179.528 40.2311 179.525 40.2826C179.526 40.3117 179.52 40.3406 179.509 40.3676C179.498 40.3945 179.482 40.4191 179.462 40.4397C179.441 40.4604 179.417 40.4767 179.39 40.4878C179.363 40.4989 179.334 40.5044 179.305 40.5042C179.257 40.5036 179.21 40.4904 179.17 40.466C179.129 40.4415 179.095 40.4067 179.072 40.365C178.961 40.2043 178.81 40.0751 178.634 39.9899C178.458 39.9047 178.263 39.8665 178.068 39.8789C177.811 39.8615 177.556 39.9335 177.346 40.0825C177.136 40.2314 176.984 40.4483 176.916 40.6962C176.822 41.0186 176.781 41.3543 176.796 41.6899C176.781 42.022 176.822 42.3543 176.916 42.6731C176.984 42.9209 177.136 43.1376 177.346 43.2865C177.556 43.4355 177.811 43.5075 178.068 43.4904C178.263 43.5027 178.459 43.4641 178.635 43.3785C178.811 43.2929 178.961 43.1631 179.072 43.002C179.096 42.9609 179.129 42.9266 179.17 42.9026C179.211 42.8786 179.257 42.8657 179.305 42.8651C179.334 42.8647 179.363 42.8701 179.39 42.8812C179.417 42.8922 179.442 42.9085 179.462 42.9292C179.483 42.9499 179.499 42.9745 179.51 43.0015C179.521 43.0286 179.526 43.0575 179.525 43.0866C179.528 43.138 179.515 43.1891 179.488 43.2328C179.339 43.4707 179.129 43.6643 178.88 43.7936C178.63 43.9229 178.351 43.983 178.07 43.9678C177.708 43.9892 177.35 43.8885 177.053 43.6819C176.755 43.4754 176.536 43.1749 176.431 42.8291C176.328 42.4588 176.281 42.0752 176.292 41.691C176.281 41.3032 176.328 40.9159 176.431 40.5419" fill="white"/>
<path d="M183.477 42.524V41.872C183.477 41.8343 183.457 41.814 183.418 41.814H182.372C181.499 41.814 181.129 42.082 181.129 42.6702C181.129 43.2108 181.506 43.4967 182.214 43.4967C182.97 43.4967 183.477 43.1296 183.477 42.5217V42.524ZM184.26 43.6714C184.26 43.7044 184.254 43.7372 184.24 43.7675C184.227 43.7979 184.208 43.8252 184.184 43.8477C184.159 43.8702 184.131 43.8873 184.099 43.8981C184.068 43.9089 184.035 43.9131 184.002 43.9103C183.951 43.9103 183.901 43.8954 183.859 43.8676C183.817 43.8398 183.783 43.8002 183.763 43.7537L183.55 43.4057H183.531C183.357 43.6011 183.14 43.7535 182.897 43.8508C182.654 43.948 182.392 43.9875 182.131 43.966C181.284 43.966 180.63 43.5072 180.63 42.6719C180.63 41.8065 181.238 41.3668 182.297 41.3668H183.418C183.426 41.3682 183.435 41.3677 183.442 41.3653C183.45 41.3629 183.457 41.3587 183.463 41.353C183.468 41.3473 183.473 41.3403 183.475 41.3326C183.478 41.3249 183.478 41.3167 183.477 41.3088V40.9973C183.477 40.271 183.201 39.8667 182.334 39.8667C181.982 39.8727 181.637 39.9673 181.331 40.1417C181.28 40.178 181.219 40.1982 181.157 40.1997C181.126 40.2017 181.096 40.1972 181.067 40.1866C181.038 40.1759 181.012 40.1592 180.99 40.1377C180.969 40.1162 180.952 40.0903 180.941 40.0618C180.93 40.0333 180.925 40.0028 180.927 39.9723C180.928 39.9334 180.937 39.8952 180.954 39.8602C180.972 39.8253 180.996 39.7945 181.026 39.7699C181.422 39.51 181.89 39.3811 182.364 39.4015C183.45 39.4015 183.956 39.8888 183.956 40.9625V42.7369C183.943 42.8984 183.975 43.0603 184.049 43.2044L184.224 43.5356C184.246 43.5788 184.258 43.626 184.261 43.6742" fill="white"/>
<path d="M185.367 43.676V39.7519C185.366 39.7183 185.371 39.6846 185.383 39.653C185.395 39.6215 185.413 39.5926 185.436 39.5682C185.459 39.5438 185.487 39.5244 185.518 39.5112C185.549 39.4979 185.583 39.4911 185.617 39.4911C185.65 39.4911 185.684 39.4979 185.715 39.5112C185.746 39.5244 185.774 39.5438 185.797 39.5682C185.821 39.5926 185.839 39.6215 185.85 39.653C185.862 39.6846 185.868 39.7183 185.866 39.7519V40.1759H185.872C185.961 39.9468 186.121 39.7516 186.328 39.618C186.535 39.4843 186.779 39.4189 187.025 39.4311C187.29 39.4242 187.552 39.4907 187.781 39.6231C187.833 39.6462 187.875 39.6863 187.9 39.7366C187.926 39.787 187.933 39.8446 187.921 39.8998C187.909 39.9549 187.879 40.0043 187.834 40.0396C187.79 40.0749 187.735 40.0939 187.679 40.0936C187.635 40.0923 187.591 40.0824 187.551 40.0646C187.36 39.9672 187.149 39.9136 186.934 39.9079C186.16 39.9079 185.866 40.5704 185.866 41.3888V43.676C185.868 43.7097 185.862 43.7433 185.85 43.7749C185.839 43.8065 185.821 43.8353 185.797 43.8597C185.774 43.8841 185.746 43.9035 185.715 43.9168C185.684 43.93 185.65 43.9369 185.617 43.9369C185.583 43.9369 185.549 43.93 185.518 43.9168C185.487 43.9035 185.459 43.8841 185.436 43.8597C185.413 43.8353 185.395 43.8065 185.383 43.7749C185.371 43.7433 185.366 43.7097 185.367 43.676" fill="white"/>
<path d="M191.493 41.3673C191.501 41.3687 191.509 41.3682 191.517 41.3658C191.525 41.3634 191.532 41.3592 191.537 41.3535C191.543 41.3478 191.547 41.3408 191.55 41.3331C191.552 41.3254 191.553 41.3172 191.551 41.3093C191.556 41.0981 191.528 40.8874 191.466 40.6852C191.38 40.4434 191.221 40.2341 191.011 40.0862C190.8 39.9382 190.549 39.8588 190.292 39.8588C190.035 39.8588 189.784 39.9382 189.573 40.0862C189.363 40.2341 189.204 40.4434 189.118 40.6852C189.058 40.8877 189.03 41.0982 189.035 41.3093C189.033 41.3172 189.034 41.3253 189.036 41.3329C189.039 41.3406 189.043 41.3475 189.049 41.3532C189.054 41.3589 189.061 41.3631 189.069 41.3655C189.077 41.368 189.085 41.3686 189.093 41.3673H191.493ZM188.665 42.8175C188.555 42.4484 188.508 42.0634 188.526 41.6788C188.509 41.294 188.556 40.9091 188.665 40.5396C188.785 40.2059 189.006 39.9175 189.297 39.7136C189.589 39.5098 189.936 39.4004 190.291 39.4004C190.647 39.4004 190.994 39.5098 191.285 39.7136C191.576 39.9175 191.797 40.2059 191.918 40.5396C192.02 40.8789 192.067 41.2324 192.056 41.5866C192.058 41.6174 192.053 41.6483 192.042 41.6771C192.031 41.706 192.014 41.7322 191.992 41.7539C191.97 41.7756 191.943 41.7923 191.914 41.803C191.885 41.8136 191.854 41.818 191.823 41.8157H189.09C189.082 41.8144 189.074 41.8149 189.067 41.8171C189.059 41.8194 189.053 41.8233 189.047 41.8287C189.041 41.834 189.037 41.8406 189.034 41.8479C189.032 41.8553 189.031 41.8631 189.032 41.8708C189.018 42.1288 189.049 42.3873 189.126 42.6341C189.205 42.8964 189.371 43.1241 189.597 43.2796C189.823 43.435 190.095 43.509 190.369 43.4892C190.591 43.4971 190.813 43.4568 191.018 43.371C191.223 43.2853 191.407 43.1562 191.558 42.9926C191.604 42.9387 191.671 42.9052 191.742 42.8992C191.771 42.8981 191.799 42.9027 191.826 42.9129C191.853 42.9231 191.877 42.9386 191.898 42.9586C191.918 42.9785 191.935 43.0024 191.946 43.0288C191.957 43.0552 191.962 43.0835 191.962 43.1121C191.963 43.1715 191.945 43.2297 191.908 43.2769C191.718 43.5044 191.478 43.685 191.206 43.8046C190.934 43.9241 190.638 43.9793 190.341 43.966C189.972 43.9959 189.604 43.8981 189.298 43.689C188.993 43.48 188.769 43.1724 188.664 42.818" fill="white"/>
<path d="M197.401 43.3899C197.358 43.3647 197.322 43.3286 197.298 43.2852C197.273 43.2418 197.261 43.1926 197.262 43.1428C197.264 43.0732 197.293 43.0072 197.343 42.9588C197.393 42.9104 197.46 42.8836 197.53 42.8841C197.599 42.8879 197.666 42.9097 197.724 42.9473C198.212 43.2914 198.791 43.4839 199.389 43.5007C200.393 43.5007 201.011 42.985 201.011 42.2245C201.011 41.5981 200.662 41.1584 199.508 41.0116L199.218 40.9739C197.991 40.8173 197.421 40.228 197.421 39.3208C197.421 38.236 198.195 37.5666 199.383 37.5666C199.948 37.5545 200.505 37.6973 200.994 37.9796C201.044 38.0032 201.086 38.0393 201.116 38.0844C201.147 38.1294 201.165 38.1817 201.169 38.236C201.169 38.2687 201.162 38.301 201.15 38.3311C201.138 38.3613 201.119 38.3887 201.096 38.4117C201.073 38.4348 201.045 38.4531 201.015 38.4656C200.985 38.478 200.953 38.4844 200.92 38.4843C200.855 38.4801 200.792 38.4613 200.736 38.4292C200.317 38.1912 199.845 38.0645 199.364 38.0614C198.451 38.0614 197.945 38.5678 197.945 39.2732C197.945 39.9171 198.342 40.3301 199.418 40.4681L199.705 40.5052C200.947 40.6607 201.536 41.2483 201.536 42.1874C201.536 43.2437 200.78 43.9972 199.326 43.9972C198.639 43.9923 197.968 43.7813 197.402 43.3916" fill="white"/>
<path d="M205.585 42.6723C205.747 42.0234 205.747 41.3449 205.585 40.696C205.499 40.4571 205.341 40.2504 205.133 40.1044C204.925 39.9583 204.677 39.8799 204.422 39.8799C204.168 39.8799 203.919 39.9583 203.711 40.1044C203.503 40.2504 203.345 40.4571 203.259 40.696C203.163 41.0155 203.123 41.349 203.139 41.6821C203.123 42.0175 203.163 42.3533 203.259 42.6752C203.345 42.9139 203.503 43.1202 203.711 43.266C203.92 43.4119 204.168 43.4901 204.422 43.4901C204.677 43.4901 204.925 43.4119 205.133 43.266C205.341 43.1202 205.499 42.9139 205.585 42.6752V42.6723ZM202.78 42.83C202.583 42.0804 202.583 41.2925 202.78 40.5429C202.905 40.2084 203.129 39.9199 203.422 39.7162C203.716 39.5125 204.065 39.4033 204.423 39.4033C204.78 39.4033 205.13 39.5125 205.423 39.7162C205.717 39.9199 205.941 40.2084 206.065 40.5429C206.261 41.2927 206.261 42.0802 206.065 42.83C205.941 43.1645 205.717 43.453 205.423 43.6567C205.13 43.8604 204.78 43.9696 204.423 43.9696C204.065 43.9696 203.716 43.8604 203.422 43.6567C203.129 43.453 202.905 43.1645 202.78 42.83" fill="white"/>
<path d="M208.218 43.9322C207.547 43.9322 207.309 43.6202 207.309 42.9038V37.8897C207.307 37.8558 207.312 37.8217 207.323 37.7897C207.334 37.7576 207.352 37.7282 207.376 37.7033C207.399 37.6785 207.427 37.6586 207.458 37.6451C207.49 37.6315 207.523 37.6245 207.558 37.6245C207.592 37.6245 207.625 37.6315 207.657 37.6451C207.688 37.6586 207.716 37.6785 207.739 37.7033C207.763 37.7282 207.781 37.7576 207.792 37.7897C207.803 37.8217 207.808 37.8558 207.806 37.8897V42.8864C207.806 43.3162 207.922 43.4554 208.312 43.4554C208.345 43.4538 208.377 43.4588 208.408 43.4701C208.438 43.4814 208.466 43.4987 208.489 43.521C208.513 43.5433 208.532 43.5702 208.544 43.6C208.557 43.6297 208.564 43.6618 208.564 43.6941C208.564 43.7265 208.557 43.7585 208.544 43.7883C208.532 43.8181 208.513 43.8449 208.489 43.8672C208.466 43.8895 208.438 43.9069 208.408 43.9181C208.377 43.9294 208.345 43.9344 208.312 43.9328L208.218 43.9322Z" fill="white"/>
<path d="M212.473 43.6179V43.3152H212.465C212.328 43.524 212.136 43.6922 211.911 43.8021C211.686 43.912 211.436 43.9596 211.186 43.9399C210.218 43.9399 209.666 43.332 209.666 42.2676V39.6944C209.663 39.6605 209.668 39.6264 209.679 39.5943C209.691 39.5623 209.709 39.5329 209.732 39.508C209.755 39.4831 209.783 39.4633 209.815 39.4498C209.846 39.4362 209.88 39.4292 209.914 39.4292C209.948 39.4292 209.982 39.4362 210.013 39.4498C210.044 39.4633 210.073 39.4831 210.096 39.508C210.119 39.5329 210.137 39.5623 210.148 39.5943C210.16 39.6264 210.165 39.6605 210.162 39.6944V42.1487C210.162 43.0188 210.53 43.4613 211.296 43.4613C211.456 43.4658 211.615 43.4369 211.763 43.3765C211.912 43.316 212.045 43.2254 212.156 43.1104C212.267 42.9954 212.353 42.8585 212.407 42.7086C212.462 42.5586 212.485 42.3989 212.474 42.2397V39.6944C212.472 39.6605 212.476 39.6264 212.488 39.5943C212.499 39.5623 212.517 39.5329 212.54 39.508C212.564 39.4831 212.592 39.4633 212.623 39.4498C212.655 39.4362 212.688 39.4292 212.722 39.4292C212.756 39.4292 212.79 39.4362 212.822 39.4498C212.853 39.4633 212.881 39.4831 212.904 39.508C212.928 39.5329 212.945 39.5623 212.957 39.5943C212.968 39.6264 212.973 39.6605 212.971 39.6944V43.6179C212.973 43.6519 212.968 43.686 212.957 43.718C212.945 43.7501 212.928 43.7795 212.904 43.8044C212.881 43.8292 212.853 43.8491 212.822 43.8626C212.79 43.8762 212.756 43.8832 212.722 43.8832C212.688 43.8832 212.655 43.8762 212.623 43.8626C212.592 43.8491 212.564 43.8292 212.54 43.8044C212.517 43.7795 212.499 43.7501 212.488 43.718C212.476 43.686 212.472 43.6519 212.474 43.6179" fill="white"/>
<path d="M215.845 43.9322C215.034 43.9322 214.721 43.6201 214.721 42.7553V39.9837C214.721 39.946 214.705 39.9257 214.667 39.9257H214.306C214.276 39.9285 214.245 39.9248 214.216 39.915C214.186 39.9051 214.16 39.8894 214.137 39.8687C214.114 39.8479 214.096 39.8228 214.084 39.7947C214.071 39.7666 214.065 39.7363 214.065 39.7056C214.065 39.6749 214.071 39.6446 214.084 39.6165C214.096 39.5885 214.114 39.5633 214.137 39.5425C214.16 39.5218 214.186 39.5061 214.216 39.4963C214.245 39.4864 214.276 39.4828 214.306 39.4855H214.667C214.705 39.4855 214.721 39.4681 214.721 39.4275V37.8897C214.718 37.8556 214.723 37.8214 214.735 37.7892C214.746 37.757 214.764 37.7275 214.788 37.7025C214.811 37.6775 214.839 37.6576 214.871 37.6439C214.902 37.6303 214.936 37.6233 214.97 37.6233C215.005 37.6233 215.039 37.6303 215.07 37.6439C215.101 37.6576 215.13 37.6775 215.153 37.7025C215.176 37.7275 215.194 37.757 215.206 37.7892C215.217 37.8214 215.222 37.8556 215.22 37.8897V39.431C215.22 39.4687 215.236 39.4889 215.275 39.4889H215.976C216.006 39.4862 216.037 39.4899 216.066 39.4997C216.096 39.5096 216.122 39.5253 216.145 39.546C216.168 39.5667 216.186 39.5919 216.198 39.62C216.211 39.6481 216.217 39.6784 216.217 39.7091C216.217 39.7398 216.211 39.7701 216.198 39.7982C216.186 39.8262 216.168 39.8514 216.145 39.8721C216.122 39.8928 216.096 39.9086 216.066 39.9184C216.037 39.9283 216.006 39.9319 215.976 39.9292H215.275C215.237 39.9292 215.22 39.9484 215.22 39.9872V42.7414C215.22 43.3214 215.401 43.4583 215.964 43.4583C215.997 43.4555 216.031 43.4595 216.062 43.4703C216.094 43.481 216.123 43.4981 216.147 43.5205C216.172 43.543 216.191 43.5703 216.205 43.6006C216.218 43.631 216.225 43.6638 216.225 43.697C216.225 43.7302 216.218 43.763 216.205 43.7934C216.191 43.8238 216.172 43.851 216.147 43.8735C216.123 43.8959 216.094 43.913 216.062 43.9237C216.031 43.9344 215.997 43.9385 215.964 43.9357L215.845 43.9322Z" fill="white"/>
<path d="M217.453 43.6457V39.7228C217.451 39.6886 217.456 39.6543 217.467 39.622C217.479 39.5897 217.497 39.5602 217.52 39.5351C217.544 39.5101 217.572 39.4901 217.604 39.4765C217.635 39.4628 217.669 39.4558 217.704 39.4558C217.738 39.4558 217.772 39.4628 217.803 39.4765C217.835 39.4901 217.863 39.5101 217.887 39.5351C217.91 39.5602 217.928 39.5897 217.94 39.622C217.951 39.6543 217.956 39.6886 217.954 39.7228V43.6457C217.956 43.6799 217.951 43.7142 217.94 43.7465C217.928 43.7788 217.91 43.8084 217.887 43.8334C217.863 43.8585 217.835 43.8784 217.803 43.8921C217.772 43.9057 217.738 43.9128 217.704 43.9128C217.669 43.9128 217.635 43.9057 217.604 43.8921C217.572 43.8784 217.544 43.8585 217.52 43.8334C217.497 43.8084 217.479 43.7788 217.467 43.7465C217.456 43.7142 217.451 43.6799 217.453 43.6457V43.6457ZM217.317 37.17C217.317 37.0935 217.34 37.0187 217.382 36.9551C217.424 36.8914 217.485 36.8417 217.556 36.8123C217.626 36.7828 217.704 36.775 217.779 36.7897C217.855 36.8044 217.924 36.8411 217.978 36.895C218.032 36.9489 218.069 37.0177 218.084 37.0926C218.1 37.1676 218.092 37.2453 218.063 37.316C218.034 37.3866 217.984 37.4471 217.92 37.4896C217.857 37.5322 217.782 37.555 217.705 37.5551C217.603 37.555 217.504 37.5144 217.432 37.4422C217.359 37.3701 217.318 37.2722 217.317 37.17" fill="white"/>
<path d="M222.146 42.6723C222.242 42.3504 222.282 42.0146 222.266 41.6792C222.282 41.3461 222.241 41.0127 222.146 40.6931C222.06 40.4542 221.902 40.2475 221.694 40.1015C221.486 39.9554 221.237 39.877 220.983 39.877C220.728 39.877 220.48 39.9554 220.272 40.1015C220.064 40.2475 219.906 40.4542 219.82 40.6931C219.723 41.0125 219.682 41.346 219.699 41.6792C219.682 42.0147 219.723 42.3506 219.82 42.6723C219.906 42.911 220.064 43.1173 220.272 43.2632C220.48 43.409 220.728 43.4873 220.983 43.4873C221.237 43.4873 221.485 43.409 221.694 43.2632C221.902 43.1173 222.06 42.911 222.146 42.6723ZM219.338 42.8272C219.14 42.0776 219.14 41.2896 219.338 40.54C219.463 40.2056 219.687 39.9172 219.981 39.7136C220.275 39.51 220.624 39.4009 220.982 39.4009C221.34 39.4009 221.689 39.51 221.983 39.7136C222.277 39.9172 222.501 40.2056 222.626 40.54C222.822 41.2899 222.822 42.0773 222.626 42.8272C222.501 43.1616 222.277 43.4499 221.983 43.6536C221.689 43.8572 221.34 43.9663 220.982 43.9663C220.624 43.9663 220.275 43.8572 219.981 43.6536C219.687 43.4499 219.463 43.1616 219.338 42.8272Z" fill="white"/>
<path d="M226.713 43.676V41.2229C226.713 40.3529 226.328 39.9085 225.562 39.9085C225.401 39.9034 225.241 39.9317 225.091 39.9917C224.942 40.0516 224.806 40.1419 224.694 40.2568C224.581 40.3717 224.493 40.5088 224.437 40.6592C224.38 40.8096 224.355 40.9702 224.364 41.1307V43.676C224.366 43.7099 224.361 43.7439 224.35 43.7759C224.339 43.8079 224.321 43.8372 224.298 43.862C224.274 43.8868 224.246 43.9066 224.215 43.9202C224.184 43.9337 224.15 43.9407 224.116 43.9407C224.082 43.9407 224.048 43.9337 224.017 43.9202C223.986 43.9066 223.958 43.8868 223.935 43.862C223.911 43.8372 223.893 43.8079 223.882 43.7759C223.871 43.7439 223.866 43.7099 223.868 43.676V39.7519C223.866 39.718 223.871 39.6841 223.882 39.6521C223.893 39.6201 223.911 39.5907 223.935 39.5659C223.958 39.5411 223.986 39.5213 224.017 39.5078C224.048 39.4943 224.082 39.4873 224.116 39.4873C224.15 39.4873 224.184 39.4943 224.215 39.5078C224.246 39.5213 224.274 39.5411 224.298 39.5659C224.321 39.5907 224.339 39.6201 224.35 39.6521C224.361 39.6841 224.366 39.718 224.364 39.7519V40.0553H224.375C224.517 39.846 224.711 39.678 224.94 39.5685C225.168 39.4589 225.421 39.4117 225.673 39.4317C226.641 39.4317 227.213 40.0385 227.213 41.1029V43.676C227.215 43.7098 227.209 43.7435 227.197 43.7751C227.186 43.8067 227.168 43.8357 227.144 43.8601C227.121 43.8846 227.093 43.904 227.062 43.9173C227.03 43.9306 226.997 43.9375 226.963 43.9375C226.929 43.9375 226.896 43.9306 226.865 43.9173C226.834 43.904 226.805 43.8846 226.782 43.8601C226.759 43.8357 226.741 43.8067 226.729 43.7751C226.717 43.7435 226.712 43.7098 226.713 43.676" fill="white"/>
<path d="M228.418 43.452C228.384 43.4277 228.357 43.3959 228.338 43.359C228.318 43.3221 228.308 43.2812 228.308 43.2397C228.308 43.2086 228.314 43.1779 228.326 43.1493C228.339 43.1206 228.356 43.0947 228.379 43.0731C228.401 43.0515 228.427 43.0345 228.457 43.0233C228.486 43.012 228.517 43.0067 228.548 43.0077C228.607 43.0092 228.665 43.0284 228.713 43.0628C229.1 43.348 229.569 43.5031 230.051 43.5059C230.815 43.5059 231.193 43.1579 231.193 42.6608C231.193 42.2089 231 41.9815 230.19 41.8876L229.738 41.8429C228.926 41.7588 228.467 41.3644 228.467 40.6828C228.467 39.8748 229.055 39.3968 230.013 39.3968C230.47 39.394 230.921 39.5079 231.321 39.7274C231.368 39.7462 231.407 39.7782 231.435 39.8195C231.463 39.8608 231.479 39.9095 231.479 39.9594C231.479 39.9879 231.474 40.0161 231.464 40.0426C231.454 40.0691 231.438 40.0933 231.419 40.1138C231.399 40.1343 231.375 40.1508 231.349 40.1622C231.323 40.1736 231.295 40.1798 231.267 40.1804C231.202 40.1808 231.139 40.1648 231.082 40.134C230.743 39.9619 230.369 39.868 229.988 39.8591C229.314 39.8591 228.964 40.1526 228.964 40.6393C228.964 41.0627 229.223 41.3017 229.968 41.3754L230.42 41.4218C231.267 41.5123 231.69 41.8997 231.69 42.6062C231.69 43.4334 231.091 43.9653 230.003 43.9653C229.434 43.9657 228.879 43.7855 228.419 43.4508" fill="white"/>
<path fill-rule="evenodd" clip-rule="evenodd" d="M180.538 30.392C180.28 29.6848 180.153 28.9364 180.165 28.1837V28.1791C180.153 27.4202 180.281 26.6656 180.543 25.9528C180.771 25.3298 181.124 24.7596 181.58 24.2764C182.017 23.8179 182.545 23.4557 183.13 23.2132C183.734 22.9625 184.383 22.8361 185.037 22.8414C185.791 22.8291 186.529 23.0607 187.14 23.5015C187.846 24.0587 188.411 24.7725 188.792 25.5862L189.653 25.0207C189.401 24.6128 189.109 24.2317 188.78 23.8832C188.066 23.1234 187.167 22.5615 186.17 22.2526C185.608 22.0796 185.023 21.9945 184.435 22.0003C183.81 21.9965 183.187 22.0726 182.581 22.2265C182.021 22.3685 181.483 22.583 180.979 22.8646C180.499 23.1336 180.057 23.4652 179.665 23.8507C179.086 24.4144 178.628 25.0884 178.316 25.8326C178.004 26.5768 177.846 27.376 177.85 28.1826C177.845 28.9891 178.004 29.7883 178.315 30.5324C178.617 31.2628 179.065 31.9242 179.632 32.4762C180.221 33.0449 180.916 33.4934 181.677 33.7964C182.523 34.1292 183.427 34.2936 184.336 34.2802C184.956 34.2886 185.573 34.2055 186.168 34.0336C187.176 33.7393 188.084 33.1744 188.792 32.4008C189.115 32.0495 189.403 31.6687 189.653 31.2633L188.819 30.7325C188.451 31.4507 187.932 32.0807 187.297 32.5789C186.97 32.8337 186.61 33.0438 186.228 33.2036C185.848 33.3621 185.441 33.4433 185.029 33.4426C184.37 33.4484 183.716 33.3262 183.103 33.0829C182.522 32.8513 181.997 32.4982 181.563 32.0475C181.112 31.571 180.764 31.0076 180.538 30.392ZM172.579 33.4234C172.299 33.5008 172.009 33.5398 171.718 33.5395L171.723 33.536C171.354 33.5387 170.986 33.4818 170.635 33.3672C170.302 33.259 169.989 33.0961 169.709 32.8852C169.425 32.6709 169.178 32.4123 168.976 32.1195C168.759 31.8041 168.59 31.4578 168.475 31.0922L167.418 31.5266C167.561 31.941 167.761 32.3331 168.013 32.6914C168.252 33.0269 168.547 33.3185 168.886 33.5534C169.244 33.7982 169.641 33.9808 170.061 34.0934C170.556 34.223 171.066 34.2853 171.578 34.2785C172.201 34.2896 172.821 34.2002 173.414 34.0139C173.898 33.861 174.348 33.6159 174.739 33.2924C175.084 33.0014 175.357 32.6347 175.537 32.221C175.715 31.8055 175.806 31.3578 175.802 30.906C175.808 30.5152 175.71 30.1299 175.519 29.7888C175.32 29.4421 175.064 29.1307 174.763 28.8671C174.433 28.5744 174.075 28.3145 173.694 28.0909C173.293 27.8566 172.888 27.6263 172.473 27.4094C172.14 27.2352 171.811 27.0614 171.489 26.8904L171.252 26.7649C170.881 26.5687 170.524 26.348 170.183 26.1042C169.895 25.9024 169.64 25.6579 169.427 25.3792C169.242 25.1355 169.143 24.8382 169.143 24.5329C169.144 24.3116 169.19 24.0929 169.281 23.8907C169.377 23.6739 169.519 23.4806 169.698 23.3246C169.903 23.1469 170.14 23.0092 170.396 22.9186C170.71 22.81 171.04 22.758 171.372 22.7648C171.756 22.7591 172.139 22.8179 172.503 22.9389C172.825 23.0469 173.124 23.2133 173.385 23.4296C173.645 23.6477 173.867 23.9063 174.043 24.1953C174.232 24.5051 174.384 24.8361 174.496 25.1814L175.506 24.722C175.379 24.3067 175.19 23.9125 174.947 23.552C174.72 23.2201 174.435 22.9323 174.104 22.7028C173.753 22.4636 173.364 22.287 172.952 22.1807C172.464 22.0579 171.963 21.9994 171.46 22.0067C170.905 21.9979 170.352 22.0783 169.823 22.2451C169.383 22.3848 168.974 22.6095 168.621 22.9064C168.301 23.1779 168.048 23.518 167.88 23.9012C167.708 24.295 167.622 24.7202 167.626 25.1495C167.618 25.5634 167.714 25.9728 167.905 26.3403C168.096 26.6912 168.344 27.0085 168.638 27.2794C168.954 27.5696 169.301 27.8245 169.673 28.0393C170.059 28.2673 170.455 28.486 170.857 28.6913C171.259 28.8967 171.654 29.1043 172.041 29.3108C172.404 29.5008 172.75 29.7215 173.075 29.9703C173.36 30.1849 173.608 30.445 173.808 30.7401C173.995 31.0249 174.093 31.3594 174.087 31.7001C174.093 31.978 174.023 32.2523 173.884 32.493C173.747 32.7214 173.562 32.9175 173.342 33.0679C173.11 33.2282 172.852 33.3483 172.579 33.4234ZM199.873 22.2706V23.0328H193.668V27.2278H197.82V27.9882H193.668V33.2453H199.87V34.0075H191.69V22.2706H199.873ZM217.832 33.1496H215.729L215.729 23.1372H217.84C218.502 23.1303 219.158 23.2537 219.771 23.5003C220.344 23.7312 220.863 24.0782 221.294 24.5195C221.727 24.9678 222.065 25.4987 222.288 26.0804C222.531 26.7175 222.652 27.3944 222.644 28.0758C222.659 28.8212 222.53 29.5624 222.266 30.2598C222.037 30.8546 221.687 31.3954 221.237 31.848C220.803 32.2785 220.28 32.6108 219.706 32.8225C219.106 33.0431 218.471 33.1539 217.832 33.1496ZM217.675 22.27H213.752L213.751 34.0058H218.145C219.137 34.0227 220.125 33.8636 221.061 33.536C221.853 33.2589 222.581 32.8248 223.2 32.2598C223.771 31.729 224.22 31.0806 224.515 30.3596C224.816 29.6206 224.968 28.8299 224.962 28.0324C224.972 27.2061 224.8 26.3876 224.461 25.6338C224.112 24.8828 223.602 24.2179 222.965 23.6865C222.334 23.1638 221.59 22.7935 220.791 22.6047C219.771 22.3642 218.724 22.2518 217.675 22.27ZM156.361 29.4378H161.553L158.994 24.893L156.361 29.4378ZM159.918 22.2706L166.542 34.0093H164.132L161.988 30.1809H155.948L153.729 34.0093H152.54L159.324 22.2706H159.918ZM210.831 30.8573H210.741L203.035 22.2724H201.925V34.0087H202.82V24.7394H202.891L211.005 34.0099H211.703V22.2724H210.831V30.8573Z" fill="white"/>
</svg>
